<svg width="418" height="114" viewBox="0 0 418 114" fill="none" xmlns="http://www.w3.org/2000/svg">
<g filter="url(#filter0_d_47_273)">
<rect x="6.5" y="3.5" width="405" height="100" rx="5.5" fill="white" stroke="black" stroke-width="5"/>
<path d="M54.3594 73H43.6074C43.4512 73 43.373 72.9023 43.373 72.707L43.4902 31.4863C43.4902 31.3301 43.5684 31.252 43.7246 31.252H55.2676C57.5137 31.252 59.5547 31.7988 61.3906 32.8926C63.1875 33.9863 64.6035 35.4414 65.6387 37.2578C66.6738 39.0547 67.1914 41.0078 67.1914 43.1172C67.1914 44.8359 66.8008 46.4375 66.0195 47.9219C65.2383 49.4062 64.3105 50.6074 63.2363 51.5254C64.3887 52.6777 65.2871 54.0156 65.9316 55.5391C66.5762 57.0625 66.8984 58.6641 66.8984 60.3438C66.8984 62.668 66.3418 64.7871 65.2285 66.7012C64.0957 68.6152 62.582 70.1484 60.6875 71.3008C58.793 72.4336 56.6836 73 54.3594 73ZM55.2676 38.3711H50.6973V47.8047H55.2676C56.6543 47.8047 57.7773 47.3164 58.6367 46.3398C59.4961 45.3438 59.9258 44.2695 59.9258 43.1172C59.9258 41.8477 59.4668 40.7441 58.5488 39.8066C57.6309 38.8496 56.5371 38.3711 55.2676 38.3711ZM54.3594 55.0703H50.6973L50.6387 65.6758H54.3594C55.8047 65.6758 57.0449 65.1484 58.0801 64.0938C59.1152 63.0391 59.6328 61.7891 59.6328 60.3438C59.6328 58.8984 59.1152 57.6582 58.0801 56.623C57.0449 55.5879 55.8047 55.0703 54.3594 55.0703ZM67.9531 72.707L75.3945 31.4863C75.4336 31.3301 75.5312 31.252 75.6875 31.252H84.3887C84.5449 31.252 84.6426 31.3301 84.6816 31.4863L91.8301 72.707C91.8496 72.9023 91.7715 73 91.5957 73H84.9453C84.75 73 84.6426 72.9023 84.623 72.707L83.9785 68.3125H75.8047L75.1602 72.707C75.1406 72.9023 75.043 73 74.8672 73H68.1875C68.0312 73 67.9531 72.9023 67.9531 72.707ZM79.7012 45.0508L77.0059 61.8965H82.7773L80.3164 45.0508L79.9648 42.8242L79.7012 45.0508ZM105.336 73.5859C103.168 73.5859 101.215 73.0488 99.4766 71.9746C97.7188 70.9004 96.3027 69.4551 95.2285 67.6387C94.1738 65.8223 93.6465 63.791 93.6465 61.5449V42.5312C93.6465 40.3438 94.1836 38.3516 95.2578 36.5547C96.3125 34.7383 97.7285 33.293 99.5059 32.2188C101.283 31.125 103.227 30.5781 105.336 30.5781C107.543 30.5781 109.535 31.1055 111.312 32.1602C113.09 33.2344 114.496 34.6699 115.531 36.4668C116.586 38.2637 117.113 40.2852 117.113 42.5312V45.2852C117.113 45.4414 117.016 45.5195 116.82 45.5195H110.082C109.926 45.5195 109.848 45.4414 109.848 45.2852V43C109.848 41.4766 109.418 40.2168 108.559 39.2207C107.699 38.2246 106.625 37.7266 105.336 37.7266C104.184 37.7266 103.158 38.2051 102.26 39.1621C101.361 40.1191 100.912 41.2422 100.912 42.5312V61.5449C100.912 62.8535 101.352 63.9863 102.23 64.9434C103.109 65.8809 104.145 66.3496 105.336 66.3496C106.625 66.3496 107.699 65.8906 108.559 64.9727C109.418 64.0352 109.848 62.8926 109.848 61.5449V58.5859H105.658C105.443 58.5859 105.336 58.4883 105.336 58.293V51.584C105.336 51.3887 105.443 51.291 105.658 51.291H116.879C117.035 51.291 117.113 51.3887 117.113 51.584V61.5449C117.113 63.791 116.586 65.8223 115.531 67.6387C114.457 69.4551 113.041 70.9004 111.283 71.9746C109.525 73.0488 107.543 73.5859 105.336 73.5859ZM140.99 73H121.596C121.439 73 121.361 72.9023 121.361 72.707L121.42 31.4863C121.42 31.3301 121.498 31.252 121.654 31.252H140.932C141.088 31.252 141.166 31.3496 141.166 31.5449V38.2539C141.166 38.4102 141.088 38.4883 140.932 38.4883H128.627V47.8633H140.932C141.088 47.8633 141.166 47.9414 141.166 48.0977L141.225 54.8945C141.225 55.0508 141.146 55.1289 140.99 55.1289H128.627V65.6172H140.99C141.146 65.6172 141.225 65.7148 141.225 65.9102V72.7656C141.225 72.9219 141.146 73 140.99 73ZM166.186 73H146.791C146.635 73 146.557 72.9023 146.557 72.707L146.615 31.5449C146.615 31.3496 146.713 31.252 146.908 31.252H153.588C153.783 31.252 153.881 31.3496 153.881 31.5449L153.822 65.6172H166.186C166.381 65.6172 166.479 65.7148 166.479 65.9102V72.707C166.479 72.9023 166.381 73 166.186 73ZM196.977 73.5859C194.809 73.5859 192.855 73.0488 191.117 71.9746C189.359 70.9004 187.943 69.4551 186.869 67.6387C185.814 65.8223 185.287 63.791 185.287 61.5449V42.5312C185.287 40.3438 185.824 38.3516 186.898 36.5547C187.953 34.7383 189.369 33.293 191.146 32.2188C192.924 31.125 194.867 30.5781 196.977 30.5781C199.184 30.5781 201.176 31.1055 202.953 32.1602C204.73 33.2344 206.137 34.6699 207.172 36.4668C208.227 38.2637 208.754 40.2852 208.754 42.5312V45.2852C208.754 45.4414 208.656 45.5195 208.461 45.5195H201.723C201.566 45.5195 201.488 45.4414 201.488 45.2852V43C201.488 41.4766 201.059 40.2168 200.199 39.2207C199.34 38.2246 198.266 37.7266 196.977 37.7266C195.824 37.7266 194.799 38.2051 193.9 39.1621C193.002 40.1191 192.553 41.2422 192.553 42.5312V61.5449C192.553 62.8535 192.992 63.9863 193.871 64.9434C194.75 65.8809 195.785 66.3496 196.977 66.3496C198.266 66.3496 199.34 65.8906 200.199 64.9727C201.059 64.0352 201.488 62.8926 201.488 61.5449V58.5859H197.299C197.084 58.5859 196.977 58.4883 196.977 58.293V51.584C196.977 51.3887 197.084 51.291 197.299 51.291H208.52C208.676 51.291 208.754 51.3887 208.754 51.584V61.5449C208.754 63.791 208.227 65.8223 207.172 67.6387C206.098 69.4551 204.682 70.9004 202.924 71.9746C201.166 73.0488 199.184 73.5859 196.977 73.5859ZM224.105 73.5859C221.977 73.5859 220.014 73.0391 218.217 71.9453C216.439 70.8516 215.004 69.3965 213.91 67.5801C212.836 65.7441 212.299 63.7324 212.299 61.5449L212.357 42.5312C212.357 40.3047 212.895 38.3027 213.969 36.5254C215.023 34.7285 216.449 33.293 218.246 32.2188C220.043 31.125 221.996 30.5781 224.105 30.5781C226.293 30.5781 228.256 31.1152 229.994 32.1895C231.752 33.2637 233.158 34.709 234.213 36.5254C235.287 38.3223 235.824 40.3242 235.824 42.5312L235.883 61.5449C235.883 63.7324 235.355 65.7344 234.301 67.5508C233.227 69.3867 231.801 70.8516 230.023 71.9453C228.246 73.0391 226.273 73.5859 224.105 73.5859ZM224.105 66.3496C225.316 66.3496 226.371 65.8613 227.27 64.8848C228.168 63.8887 228.617 62.7754 228.617 61.5449L228.559 42.5312C228.559 41.2031 228.139 40.0801 227.299 39.1621C226.459 38.2441 225.395 37.7852 224.105 37.7852C222.875 37.7852 221.82 38.2344 220.941 39.1328C220.062 40.0312 219.623 41.1641 219.623 42.5312V61.5449C219.623 62.8535 220.062 63.9863 220.941 64.9434C221.82 65.8809 222.875 66.3496 224.105 66.3496ZM251.469 73.5859C249.359 73.5859 247.406 73.0391 245.609 71.9453C243.812 70.8516 242.377 69.3867 241.303 67.5508C240.248 65.6953 239.721 63.6738 239.721 61.4863L239.838 31.4863C239.838 31.3301 239.916 31.252 240.072 31.252H246.811C246.967 31.252 247.045 31.3301 247.045 31.4863V61.4863C247.045 62.834 247.475 63.9863 248.334 64.9434C249.193 65.8809 250.238 66.3496 251.469 66.3496C252.758 66.3496 253.832 65.8809 254.691 64.9434C255.551 63.9863 255.98 62.834 255.98 61.4863V31.4863C255.98 31.3301 256.059 31.252 256.215 31.252H262.953C263.109 31.252 263.188 31.3301 263.188 31.4863L263.305 61.4863C263.305 63.6934 262.777 65.7246 261.723 67.5801C260.648 69.416 259.223 70.8809 257.445 71.9746C255.668 73.0488 253.676 73.5859 251.469 73.5859ZM275.053 73H268.256C268.1 73 268.021 72.9023 268.021 72.707L268.139 31.4863C268.139 31.3301 268.217 31.252 268.373 31.252H280.502C282.67 31.252 284.662 31.7793 286.479 32.834C288.295 33.8887 289.74 35.3047 290.814 37.082C291.908 38.8594 292.455 40.8711 292.455 43.1172C292.455 44.582 292.23 45.9102 291.781 47.1016C291.332 48.293 290.805 49.2988 290.199 50.1191C289.613 50.9395 289.076 51.5449 288.588 51.9355C290.756 54.3379 291.84 57.1602 291.84 60.4023L291.898 72.707C291.898 72.9023 291.801 73 291.605 73H284.809C284.652 73 284.574 72.9414 284.574 72.8242V60.4023C284.574 58.957 284.066 57.707 283.051 56.6523C282.035 55.5977 280.785 55.0703 279.301 55.0703H275.346L275.287 72.707C275.287 72.9023 275.209 73 275.053 73ZM280.502 38.4297H275.346V47.8633H280.502C281.732 47.8633 282.826 47.4043 283.783 46.4863C284.76 45.5684 285.248 44.4453 285.248 43.1172C285.248 41.8477 284.779 40.7539 283.842 39.8359C282.904 38.8984 281.791 38.4297 280.502 38.4297ZM303.998 73H297.201C297.045 73 296.967 72.9023 296.967 72.707L297.084 31.4863C297.084 31.3301 297.162 31.252 297.318 31.252H304.643C304.799 31.252 304.936 31.3301 305.053 31.4863L310.531 39.3965L315.98 31.4863C316.098 31.3301 316.244 31.252 316.42 31.252H323.773C323.949 31.252 324.037 31.3301 324.037 31.4863L324.154 72.707C324.154 72.9023 324.076 73 323.92 73H317.123C316.967 73 316.889 72.9023 316.889 72.707L316.83 42.0918L310.531 51.2324L304.291 42.0918L304.232 72.707C304.232 72.9023 304.154 73 303.998 73ZM348.822 73H329.428C329.271 73 329.193 72.9023 329.193 72.707L329.252 31.4863C329.252 31.3301 329.33 31.252 329.486 31.252H348.764C348.92 31.252 348.998 31.3496 348.998 31.5449V38.2539C348.998 38.4102 348.92 38.4883 348.764 38.4883H336.459V47.8633H348.764C348.92 47.8633 348.998 47.9414 348.998 48.0977L349.057 54.8945C349.057 55.0508 348.979 55.1289 348.822 55.1289H336.459V65.6172H348.822C348.979 65.6172 349.057 65.7148 349.057 65.9102V72.7656C349.057 72.9219 348.979 73 348.822 73ZM367.191 73H360.424C360.248 73 360.16 72.9023 360.16 72.707V38.4883H352.367C352.172 38.4883 352.074 38.3906 352.074 38.1953L352.133 31.4863C352.133 31.3301 352.211 31.252 352.367 31.252H375.16C375.375 31.252 375.482 31.3301 375.482 31.4863V38.1953C375.482 38.3906 375.404 38.4883 375.248 38.4883H367.367L367.426 72.707C367.426 72.9023 367.348 73 367.191 73Z" fill="#664228"/>
</g>
<defs>
<filter id="filter0_d_47_273" x="0" y="1" width="418" height="113" filterUnits="userSpaceOnUse" color-interpolation-filters="sRGB">
<feFlood flood-opacity="0" result="BackgroundImageFix"/>
<feColorMatrix in="SourceAlpha" type="matrix" values="0 0 0 0 0 0 0 0 0 0 0 0 0 0 0 0 0 0 127 0" result="hardAlpha"/>
<feOffset dy="4"/>
<feGaussianBlur stdDeviation="2"/>
<feComposite in2="hardAlpha" operator="out"/>
<feColorMatrix type="matrix" values="0 0 0 0 0 0 0 0 0 0 0 0 0 0 0 0 0 0 0.25 0"/>
<feBlend mode="normal" in2="BackgroundImageFix" result="effect1_dropShadow_47_273"/>
<feBlend mode="normal" in="SourceGraphic" in2="effect1_dropShadow_47_273" result="shape"/>
</filter>
</defs>
</svg>
