<svg width="138" height="138" viewBox="0 0 138 138" fill="none" xmlns="http://www.w3.org/2000/svg">
<g filter="url(#filter0_d_47_281)">
<path d="M134 65C134 100.899 104.899 130 69 130C33.1015 130 4 100.899 4 65C4 29.1015 33.1015 0 69 0C104.899 0 134 29.1015 134 65ZM51.3436 65C51.3436 74.7513 59.2487 82.6564 69 82.6564C78.7513 82.6564 86.6564 74.7513 86.6564 65C86.6564 55.2487 78.7513 47.3436 69 47.3436C59.2487 47.3436 51.3436 55.2487 51.3436 65Z" fill="#DBA55D"/>
<path d="M42.8939 53.6167L39.743 57.9725C39.6972 58.0358 39.6348 58.0388 39.5557 57.9816L22.8906 45.8545C22.8273 45.8087 22.8186 45.7541 22.8644 45.6908L26.247 41.0145C26.9052 40.1046 27.7249 39.438 28.706 39.0148C29.6757 38.6073 30.6801 38.4601 31.7193 38.573C32.7507 38.6802 33.6936 39.0429 34.5481 39.661C35.2444 40.1647 35.7788 40.7923 36.1512 41.5438C36.5236 42.2953 36.7383 43.0231 36.7954 43.7273C37.6 43.5982 38.4053 43.6263 39.2113 43.8116C40.0174 43.9969 40.7606 44.3357 41.4411 44.8279C42.3827 45.509 43.0781 46.3556 43.5273 47.3675C43.9707 48.3873 44.1483 49.4498 44.0599 50.5551C43.9637 51.6545 43.575 52.6751 42.8939 53.6167ZM29.1311 43.1008L27.7918 44.9523L31.6136 47.7168L32.9529 45.8653C33.3593 45.3035 33.4905 44.7054 33.3468 44.0711C33.1951 43.4311 32.8858 42.9422 32.419 42.6045C31.9046 42.2325 31.3231 42.095 30.6743 42.1922C30.0175 42.2836 29.5032 42.5865 29.1311 43.1008ZM35.6302 48.3624L34.557 49.846L38.8363 52.9776L39.9267 51.4703C40.3502 50.8848 40.5 50.2278 40.3761 49.4994C40.2522 48.7709 39.8975 48.1949 39.3119 47.7714C38.7264 47.3478 38.0723 47.1941 37.3496 47.3101C36.6269 47.4261 36.0537 47.7769 35.6302 48.3624Z" fill="black"/>
<path d="M48.3672 45.1336L40.7948 25.607C40.7707 25.5301 40.792 25.4713 40.8587 25.4306L44.571 23.162C44.6376 23.1213 44.6996 23.1291 44.7571 23.1856L58.5541 38.9083C58.6134 38.9865 58.6055 39.0485 58.5305 39.0944L55.6932 40.8283C55.6099 40.8792 55.5386 40.8656 55.4793 40.7873L54.0586 39.0805L50.5713 41.2116L51.4421 43.2545C51.4846 43.343 51.4684 43.4101 51.3934 43.4559L48.5436 45.1975C48.477 45.2382 48.4182 45.2169 48.3672 45.1336ZM46.1688 30.2713L49.4109 38.1611L51.8733 36.6563L46.4313 30.1109L45.7007 29.2526L46.1688 30.2713Z" fill="black"/>
<path d="M83.5297 114.877L80.2326 115.701C80.1568 115.72 80.1071 115.682 80.0834 115.587L75.1449 95.5772C75.126 95.5014 75.1544 95.454 75.2302 95.4351L78.7831 94.5475C78.8589 94.5286 78.9347 94.5499 79.0105 94.6115L82.6267 97.7847L84.3114 93.2872C84.3493 93.1972 84.4109 93.1415 84.4962 93.1202L88.0633 92.2291C88.1486 92.2078 88.2007 92.235 88.2196 92.3108L93.2719 112.292C93.2955 112.387 93.2695 112.444 93.1937 112.463L89.8966 113.287C89.8208 113.306 89.771 113.268 89.7474 113.173L86.0088 98.3288L84.061 103.526L79.9262 99.8484L83.6079 114.707C83.6316 114.801 83.6055 114.858 83.5297 114.877Z" fill="black"/>
<path d="M106.192 104.546L97.6482 109.132C97.5794 109.169 97.5218 109.144 97.4757 109.058L87.7536 90.885C87.7167 90.8162 87.7326 90.7633 87.8014 90.7263L96.2939 86.1676C96.3627 86.1307 96.4203 86.1552 96.4664 86.2413L98.053 89.1968C98.0899 89.2657 98.074 89.3186 98.0052 89.3555L92.5844 92.2653L94.8014 96.3954L100.222 93.4856C100.291 93.4487 100.344 93.4646 100.381 93.5334L102.014 96.5139C102.051 96.5827 102.035 96.6356 101.966 96.6726L96.5196 99.5962L98.9999 104.217L104.446 101.293C104.515 101.256 104.573 101.281 104.619 101.367L106.24 104.387C106.277 104.456 106.261 104.509 106.192 104.546Z" fill="black"/>
<path d="M116.867 94.5913L114.301 96.7965C114.234 96.8538 114.169 96.8454 114.105 96.7713L102.956 83.7938L100 86.3331C99.926 86.3967 99.8571 86.3915 99.7935 86.3174L97.6297 83.7539C97.5788 83.6947 97.5829 83.6396 97.6422 83.5887L106.286 76.1619C106.368 76.0919 106.434 76.0865 106.485 76.1458L108.671 78.6902C108.735 78.7642 108.737 78.8267 108.678 78.8776L105.689 81.4455L116.861 94.4039C116.924 94.4779 116.927 94.5404 116.867 94.5913Z" fill="black"/>
<path d="M68.3289 37.415C67.245 37.4339 66.2639 37.1824 65.3856 36.6605C64.4974 36.1388 63.7769 35.4286 63.2241 34.5299C62.681 33.631 62.3996 32.6202 62.38 31.4973L62.2143 21.9919C62.1952 20.8983 62.4464 19.8977 62.9677 18.99C63.4792 18.0728 64.1745 17.3379 65.0537 16.7854C65.9327 16.2231 66.8994 15.9327 67.9539 15.9143C69.0573 15.8951 70.0578 16.1414 70.9556 16.6531C71.8535 17.1747 72.569 17.8801 73.1022 18.7694C73.6451 19.6585 73.9263 20.6645 73.9459 21.7873L73.9699 23.1641C73.9713 23.2422 73.9231 23.2821 73.8255 23.2838L70.4569 23.3425C70.3788 23.3439 70.339 23.3055 70.3377 23.2274L70.3177 22.085C70.3045 21.3234 70.0787 20.6974 69.6404 20.2069C69.2021 19.7164 68.6607 19.4768 68.0163 19.488C67.4402 19.4981 66.9317 19.7462 66.4909 20.2325C66.0501 20.7188 65.8353 21.2841 65.8466 21.9286L66.0123 31.434C66.0237 32.0882 66.2533 32.6506 66.701 33.1214C67.1486 33.5824 67.6702 33.8078 68.2658 33.7974C68.9102 33.7861 69.4432 33.5473 69.8649 33.0809C70.2863 32.6047 70.4912 32.0298 70.4794 31.3561L70.4536 29.8768L68.3592 29.9133C68.2518 29.9152 68.1972 29.8673 68.1955 29.7697L68.1371 26.4157C68.1354 26.318 68.1882 26.2683 68.2956 26.2664L73.9051 26.1686C73.9832 26.1672 74.0231 26.2154 74.0248 26.313L74.1117 31.2927C74.1312 32.4156 73.8853 33.4357 73.3739 34.3529C72.8527 35.2704 72.1574 36.0052 71.288 36.5576C70.4186 37.11 69.4322 37.3957 68.3289 37.415Z" fill="black"/>
<path d="M66.3465 116.174L62.9486 116.233C62.8705 116.235 62.8306 116.187 62.8289 116.089L62.5281 95.4807C62.5268 95.4026 62.5651 95.3629 62.6432 95.3615L68.7068 95.2558C69.7906 95.2369 70.7911 95.4831 71.7084 95.9946C72.6257 96.506 73.3605 97.2013 73.9131 98.0805C74.4753 98.9595 74.7663 99.9604 74.7859 101.083C74.7986 101.816 74.6979 102.482 74.4837 103.081C74.2695 103.681 74.0147 104.188 73.7191 104.603C73.4334 105.019 73.1701 105.326 72.9294 105.526C74.0342 106.708 74.6007 108.109 74.629 109.73L74.7655 115.881C74.7672 115.978 74.7193 116.028 74.6216 116.03L71.2237 116.089C71.1456 116.09 71.106 116.062 71.105 116.003L70.9967 109.793C70.9841 109.071 70.7193 108.45 70.2024 107.932C69.6855 107.413 69.056 107.161 68.3139 107.174L66.3367 107.208L66.4611 116.026C66.4628 116.123 66.4246 116.173 66.3465 116.174ZM68.7693 98.8441L66.1916 98.889L66.2738 103.605L68.8516 103.56C69.4667 103.549 70.0095 103.31 70.48 102.843C70.9602 102.376 71.1945 101.81 71.1829 101.146C71.1718 100.511 70.928 99.9687 70.4513 99.518C69.9744 99.0575 69.4138 98.8328 68.7693 98.8441Z" fill="black"/>
<path d="M51.7377 113.773C50.7177 113.505 49.8428 112.992 49.1131 112.234C48.3833 111.477 47.8754 110.586 47.5895 109.562C47.3154 108.53 47.3175 107.486 47.5958 106.428L51.4679 91.9362C51.4877 91.8606 51.5354 91.8328 51.611 91.8527L54.8693 92.7097C54.9449 92.7295 54.9727 92.7772 54.9529 92.8528L51.1374 107.359C50.966 108.011 51.0272 108.623 51.3211 109.195C51.6174 109.758 52.0631 110.117 52.6581 110.274C53.2814 110.438 53.8604 110.348 54.3952 110.004C54.9325 109.65 55.2868 109.148 55.4582 108.496L59.2737 93.9892C59.2935 93.9137 59.3413 93.8858 59.4168 93.9057L62.6751 94.7627C62.7507 94.7826 62.7785 94.8303 62.7587 94.9058L58.9999 109.427C58.7192 110.495 58.2059 111.41 57.4599 112.173C56.7069 112.924 55.8312 113.451 54.8327 113.754C53.8366 114.047 52.8049 114.054 51.7377 113.773Z" fill="black"/>
<path d="M35.4854 105.304C34.5784 104.747 33.8852 104 33.4058 103.064C32.9348 102.133 32.704 101.137 32.7133 100.077C32.7361 99.0141 33.0337 98.0164 33.6061 97.0844L38.6067 88.9989C39.1893 88.0503 39.942 87.3379 40.8648 86.8618C41.7844 86.3722 42.7675 86.1337 43.8142 86.1462C44.866 86.1505 45.8412 86.4286 46.7399 86.9806C47.6719 87.553 48.3676 88.2955 48.8271 89.208C49.2949 90.1257 49.5159 91.1095 49.4899 92.1594C49.4773 93.206 49.1823 94.1995 48.6047 95.1398L43.6541 103.256C43.0817 104.188 42.3331 104.903 41.4084 105.401C40.4703 105.902 39.4795 106.153 38.4361 106.154C37.3926 106.155 36.4091 105.871 35.4854 105.304ZM37.379 102.221C37.895 102.538 38.4721 102.606 39.1104 102.425C39.7539 102.236 40.2366 101.879 40.5586 101.355L45.5092 93.2385C45.8568 92.6727 45.9717 92.0843 45.8541 91.4734C45.7365 90.8626 45.4031 90.3885 44.8539 90.0511C44.3297 89.7291 43.7628 89.6445 43.1532 89.7973C42.5436 89.9501 42.06 90.3177 41.7022 90.9002L36.7266 99.0011C36.3842 99.5586 36.2749 100.156 36.399 100.794C36.5281 101.423 36.8548 101.899 37.379 102.221Z" fill="black"/>
<path d="M24.6552 94.2887C23.8089 93.6113 23.2143 92.7914 22.8714 91.8289C22.5209 90.8604 22.4198 89.8537 22.568 88.8091C22.7238 87.7705 23.1527 86.8128 23.8545 85.9361L29.7954 78.5141C30.4789 77.6602 31.311 77.0504 32.2918 76.6846C33.271 76.3052 34.2754 76.1834 35.3048 76.3194C36.3403 76.4478 37.2698 76.8416 38.0932 77.5007C38.9547 78.1903 39.5676 79.0186 39.9318 79.9856C40.2899 80.9603 40.3903 81.96 40.2329 82.9849C40.0832 84.0158 39.6574 84.9697 38.9556 85.8464L38.0951 86.9214C38.0463 86.9824 37.9838 86.9824 37.9076 86.9214L35.2773 84.816C35.2163 84.7671 35.2102 84.7122 35.259 84.6512L35.973 83.7592C36.449 83.1646 36.6749 82.5386 36.6507 81.8812C36.6265 81.2239 36.3628 80.6938 35.8596 80.2911C35.4098 79.931 34.86 79.7974 34.2103 79.8902C33.5605 79.9831 33.0343 80.2811 32.6315 80.7843L26.6906 88.2063C26.2817 88.7171 26.0993 89.2966 26.1434 89.9448C26.1935 90.5853 26.4511 91.0917 26.9162 91.464C27.4194 91.8668 27.9821 92.0233 28.6044 91.9334C29.2328 91.836 29.7575 91.5243 30.1786 90.9982L31.1031 89.8432L29.4678 88.5342C29.3839 88.467 29.3725 88.3953 29.4335 88.3191L31.5298 85.7003C31.5908 85.624 31.6633 85.6195 31.7471 85.6866L36.1271 89.1926C36.1881 89.2414 36.1881 89.3039 36.127 89.3802L33.0147 93.2684C32.3129 94.1452 31.4724 94.7733 30.4931 95.1528C29.5063 95.5262 28.5019 95.6479 27.4801 95.518C26.4583 95.388 25.5167 94.9783 24.6552 94.2887Z" fill="black"/>
<path d="M88.8233 42.3358L79.9153 38.5039C79.8435 38.473 79.8269 38.4128 79.8655 38.323L88.0367 19.4016C88.0676 19.3299 88.1189 19.3094 88.1907 19.3403L97.0449 23.1491C97.1167 23.1799 97.1332 23.2402 97.0946 23.3299L95.7691 26.4114C95.7382 26.4832 95.6869 26.5036 95.6152 26.4728L89.9635 24.0416L88.1112 28.3476L93.7629 30.7788C93.8346 30.8096 93.8551 30.861 93.8242 30.9327L92.5082 34.0662C92.4773 34.1379 92.426 34.1584 92.3543 34.1275L86.6757 31.6848L84.6035 36.5021L90.282 38.9448C90.3538 38.9757 90.3704 39.036 90.3318 39.1257L88.9773 42.2745C88.9464 42.3463 88.8951 42.3667 88.8233 42.3358Z" fill="black"/>
<path d="M96.2398 54.0779L90.7292 46.0986C90.6848 46.0343 90.7028 45.9744 90.7831 45.9189L107.735 34.2475C107.815 34.192 107.883 34.2044 107.939 34.2848L109.836 37.033C109.892 37.1133 109.88 37.1813 109.799 37.2368L95.7644 46.8937L99.2773 51.9802C99.3327 52.0606 99.3203 52.1285 99.24 52.184L96.4436 54.1152C96.3632 54.1707 96.2953 54.1583 96.2398 54.0779Z" fill="black"/>
</g>
<defs>
<filter id="filter0_d_47_281" x="0" y="0" width="138" height="138" filterUnits="userSpaceOnUse" color-interpolation-filters="sRGB">
<feFlood flood-opacity="0" result="BackgroundImageFix"/>
<feColorMatrix in="SourceAlpha" type="matrix" values="0 0 0 0 0 0 0 0 0 0 0 0 0 0 0 0 0 0 127 0" result="hardAlpha"/>
<feOffset dy="4"/>
<feGaussianBlur stdDeviation="2"/>
<feComposite in2="hardAlpha" operator="out"/>
<feColorMatrix type="matrix" values="0 0 0 0 0 0 0 0 0 0 0 0 0 0 0 0 0 0 0.25 0"/>
<feBlend mode="normal" in2="BackgroundImageFix" result="effect1_dropShadow_47_281"/>
<feBlend mode="normal" in="SourceGraphic" in2="effect1_dropShadow_47_281" result="shape"/>
</filter>
</defs>
</svg>
